<?xml version="1.0" encoding="utf-8"?>
<!-- Generator: Adobe Illustrator 25.2.3, SVG Export Plug-In . SVG Version: 6.00 Build 0)  -->
<svg version="1.1" id="Layer_1" xmlns="http://www.w3.org/2000/svg" xmlns:xlink="http://www.w3.org/1999/xlink" x="0px" y="0px"
	 viewBox="0 0 255.1 141.3" style="enable-background:new 0 0 255.1 141.3;" xml:space="preserve">
<style type="text/css">
	.st0{fill:#0E3154;}
	.st1{clip-path:url(#SVGID_2_);}
	.st2{fill:none;stroke:#005AA4;stroke-width:0.25;stroke-miterlimit:10;}
	.st3{fill:#FFFFFF;}
</style>
<rect class="st0" width="255.1" height="141.3"/>
<g>
	<defs>
		<rect id="SVGID_1_" width="255.1" height="141.3"/>
	</defs>
	<clipPath id="SVGID_2_">
		<use xlink:href="#SVGID_1_"  style="overflow:visible;"/>
	</clipPath>
	<g class="st1">
		<path class="st2" d="M140.5,46.8h-30.3c-51.7,0-77.6-15.7-77.6-47c0-14.2,8-25.8,24-34.9c16-9.1,41.5-12,72.1-13.7
			c22.4-1.2,155,0,155,0v19.1c0,0-128.1-1.8-155,0c-24.5,1.7-46,2.7-58.4,8.2S51.8-8.9,51.8-0.2c0,10.1,4.3,17.3,13,21.5
			s23.8,6.4,45.4,6.4h30.3c49.2,0,87.2,11.2,114,33.6s40.1,52.4,40.1,89.9c0.1,16.8-3.8,33.4-11.4,48.4c-7.6,15-18.6,28.3-32.8,39.7
			c-14.3,11.4-32.5,20.5-54.6,27.1c-22.1,6.6-46.8,9.1-73.9,10C75.2,278-33,276.4-33,276.4v-19.1c0,0,124.4,1.9,154.9,0
			c47.7-3,85.4-10.1,112.7-30.3s40.9-45.4,40.9-75.7c0-32-11.7-57.5-35.1-76.2S183.7,46.8,140.5,46.8z M140.5,123.3h-30.3
			c-49.2,0-87.2-11.2-114-33.6S-43.9,37.4-43.9-0.2C-44-17-40.1-33.6-32.5-48.5c7.6-15,18.6-28.3,32.8-39.7s32.5-20.5,54.6-27.1
			c22.1-6.6,73.9-10,73.9-10c34.1-3,154.9,0,154.9,0v19c0,0-114.3-2.8-154.9,0.1C83.7-103,43.4-96.1,16.1-75.9S-24.8-30.5-24.8-0.2
			c0,32.1,11.7,57.5,35.1,76.2s56.7,28.2,99.9,28.2h29.2c52.4,0,78.7,15.7,78.6,47c0,14.2-8,25.8-24.1,34.9
			c-16,9.1-40.2,11.1-72.1,13.7c-22.6,1.8-154.9,0-154.9,0v-19.1c0,0,112.6,1.9,154.9,0c26.5-1.2,46-2.7,58.5-8.2
			s18.7-12.6,18.7-21.3c0-10.1-4.3-17.3-13-21.5C177.3,125.5,162.2,123.3,140.5,123.3z M140.5,85.1h-30.3
			c-37.2,0-65.8-7.6-85.8-22.7s-30-36-30-62.6c0-24.8,11.8-45.5,35.3-62C53.3-78.8,87.3-84.6,128.8-87c29.5-1.7,155,0,155,0v19.1
			c0,0-127.8-1.6-155,0c-35.4,2.1-65.9,6.4-85.7,19.1S13.5-19.9,13.5-0.2c0,21.3,8.1,37.6,24.3,49S78.1,66,110.2,66h29.2
			c37.7,0,66.6,7.6,86.8,22.7s30.2,36,30.2,62.6c0,24.8-11.8,45.5-35.3,62c-23.6,16.6-56.7,22.3-99.1,24.8
			c-27.2,1.6-154.9,0-154.9,0V219c0,0,129.7,1.7,154.9,0c37.3-2.6,65.9-6.4,85.7-19.1s29.6-29,29.6-48.6c0-21.2-8.1-37.6-24.3-49
			S172.6,85.1,140.5,85.1z"/>
	</g>
</g>
<path class="st3" d="M101,66.9h-4c-6.9,0-10.3-2.1-10.3-6.3c0-1.9,1.1-3.4,3.2-4.7c2.1-1.2,5.5-1.6,9.6-1.8c2.7-0.2,17.1,0,20.1,0
	c0.3,0,0.6,0.2,0.6,0.5c0,0,0,0,0,0v1.4c0,0.3-0.3,0.6-0.6,0.6c-3,0-16.9-0.2-20.1,0s-6.1,0.4-7.8,1.1s-2.5,1.7-2.5,2.8
	c-0.1,1.2,0.6,2.4,1.7,2.9c1.2,0.6,3.2,0.8,6,0.8h4c6.6,0,11.6,1.5,15.2,4.5c3.5,3,5.5,7.4,5.3,12c0,2.2-0.5,4.4-1.5,6.4
	c-1.1,2.1-2.5,3.9-4.4,5.3c-2.2,1.7-4.6,2.9-7.3,3.6c-3.2,0.9-6.5,1.3-9.8,1.3c-5.5,0.2-17.4,0-20.1,0c-0.3,0-0.6-0.3-0.6-0.6v-1.4
	c0-0.3,0.2-0.6,0.5-0.6c0,0,0,0,0,0c2.9,0,16.5,0.2,20.1,0c6.3-0.4,11.4-1.3,15-4s5.4-6,5.4-10.1c0.2-3.9-1.6-7.7-4.7-10.2
	C111.2,68.1,106.8,66.9,101,66.9z M101,77.1h-4c-6.6,0-11.6-1.5-15.2-4.5c-3.6-2.9-5.5-7.4-5.3-12c0-2.2,0.5-4.4,1.5-6.4
	c1.1-2.1,2.5-3.9,4.4-5.3c2.2-1.7,4.6-2.9,7.3-3.6c3-0.9,9.8-1.3,9.8-1.3c4-0.3,17.2-0.1,20.1,0c0.3,0,0.6,0.3,0.6,0.6v1.4
	c0,0.3-0.3,0.6-0.6,0.6c-2.8-0.1-15.3-0.3-20.1,0c-6,0.4-11.4,1.3-15,4S79,56.6,79,60.6c-0.2,3.9,1.6,7.7,4.7,10.1
	c3.1,2.5,7.5,3.8,13.3,3.8h3.9c7,0,10.5,2.1,10.5,6.3c0,1.9-1.1,3.4-3.2,4.7c-2.1,1.2-5.3,1.5-9.6,1.8c-2.7,0.2-17.1,0-20.1,0
	c-0.3,0-0.6-0.3-0.6-0.6v-1.4c0-0.3,0.3-0.6,0.6-0.6c2.8,0,15.1,0.2,20.1,0c3.5-0.2,6.1-0.4,7.8-1.1s2.5-1.7,2.5-2.8
	c0.1-1.2-0.6-2.4-1.7-2.9C105.1,77.2,103.1,76.9,101,77.1z M101,72h-4c-5,0-8.8-1-11.4-3c-2.6-1.9-4.1-5.1-4-8.3
	c0-3.3,1.6-6.1,4.7-8.3c3.1-2.2,7.7-3,13.2-3.3c3.5-0.2,17.2,0,20.1,0c0.3,0,0.6,0.3,0.6,0.6V51c0,0.3-0.3,0.6-0.6,0.6
	c-3,0-16.8-0.2-20.1,0c-4.7,0.3-8.8,0.8-11.4,2.5s-4,3.9-4,6.5c-0.1,2.6,1.1,5.1,3.2,6.5c2.2,1.5,5.4,2.3,9.6,2.3h3.9
	c5,0,8.9,1,11.6,3c2.6,1.9,4.1,5.1,4,8.3c0,3.3-1.6,6-4.7,8.2c-3.1,2.2-7.6,3-13.2,3.3c-3.2,0.2-17.1,0-20.1,0
	c-0.3,0-0.6-0.3-0.6-0.6v-1.4c0-0.3,0.3-0.6,0.6-0.6c3,0,17.1,0.2,20.1,0c5-0.3,8.8-0.8,11.4-2.5s3.9-3.9,3.9-6.5
	c0.1-2.6-1.1-5.1-3.2-6.5C108.5,72.8,105.3,72,101,72z"/>
<path class="st3" d="M131.1,49.1h39.2c0.3,0,0.6,0.3,0.6,0.6v1.4c0,0.3-0.3,0.6-0.6,0.6h-39.2c-0.3,0-0.6-0.3-0.6-0.6v-1.4
	C130.6,49.3,130.8,49.1,131.1,49.1z"/>
<path class="st3" d="M131.1,95.2h41.4c0.3,0,0.6,0.3,0.6,0.6v1.4c0,0.3-0.3,0.6-0.6,0.6h-41.4c-0.3,0-0.6-0.3-0.6-0.6v-1.4
	C130.6,95.4,130.8,95.2,131.1,95.2z"/>
<path class="st3" d="M131.1,54.2h37c0.3,0,0.6,0.3,0.6,0.6v1.4c0,0.3-0.3,0.6-0.6,0.6h-37c-0.3,0-0.6-0.3-0.6-0.6v-1.4
	C130.6,54.4,130.8,54.2,131.1,54.2z"/>
<path class="st3" d="M131.1,90.1h39.3c0.3,0,0.6,0.2,0.6,0.6v1.4c0,0.3-0.2,0.6-0.6,0.6h-39.3c-0.3,0-0.6-0.2-0.6-0.6v-1.4
	C130.6,90.3,130.8,90.1,131.1,90.1z"/>
<path class="st3" d="M131.1,44h41.4c0.3,0,0.6,0.3,0.6,0.6V46c0,0.3-0.3,0.6-0.6,0.6h-41.4c-0.3,0-0.6-0.3-0.6-0.6v-1.4
	C130.6,44.2,130.8,44,131.1,44z"/>
<path class="st3" d="M131.1,74.7h24.2c0.3,0,0.6,0.2,0.6,0.6v1.4c0,0.3-0.2,0.6-0.6,0.6h-24.2c-0.3,0-0.6-0.2-0.6-0.6v-1.4
	C130.6,74.9,130.8,74.7,131.1,74.7z"/>
<path class="st3" d="M131.1,64.5h24.2c0.3,0,0.6,0.2,0.6,0.6v1.4c0,0.3-0.2,0.6-0.6,0.6h-24.2c-0.3,0-0.6-0.2-0.6-0.6V65
	C130.6,64.7,130.8,64.5,131.1,64.5z"/>
<path class="st3" d="M131.1,69.6h24.2c0.3,0,0.6,0.3,0.6,0.6v1.4c0,0.3-0.3,0.6-0.6,0.6h-24.2c-0.3,0-0.6-0.3-0.6-0.6v-1.4
	C130.6,69.8,130.8,69.6,131.1,69.6z"/>
<path class="st3" d="M130.6,86.9l0-1.4c0-0.3,0.2-0.5,0.6-0.5l37.1,0.1c0.3,0,0.5,0.2,0.5,0.6l0,1.4c0,0.3-0.2,0.5-0.6,0.5
	l-37.1-0.1C130.8,87.5,130.6,87.2,130.6,86.9z"/>
</svg>
