<svg xmlns="http://www.w3.org/2000/svg" xmlns:xlink="http://www.w3.org/1999/xlink" viewBox="0 0 338.74 403.99"><defs><style>.a,.d{fill:none;}.b{fill:#0e3154;}.c{clip-path:url(#a);}.d{stroke:#005aa4;stroke-miterlimit:10;stroke-width:0.25px;}.e{fill:#fff;}</style><clipPath id="a" transform="translate(44.02 126.79)"><rect class="a" width="255.12" height="141.33"/></clipPath></defs><rect class="b" x="44.02" y="126.79" width="255.12" height="141.33"/><g class="c"><path class="d" d="M140.5,46.83H110.21q-77.58,0-77.58-47,0-21.25,24-34.94c16-9.12,41.49-12,72.14-13.68,22.45-1.23,155,0,155,0v19.1s-128.07-1.84-155,0C104.29-28,82.75-26.94,70.35-21.45S51.75-8.87,51.75-.19q0,15.14,13,21.52t45.44,6.38H140.5q73.86,0,114,33.61t40.12,89.93a105.6,105.6,0,0,1-11.43,48.36q-11.42,22.57-32.81,39.72t-54.6,27.1c-22.14,6.64-46.78,9.06-73.86,10C75.23,278-33,276.36-33,276.36v-19.1s124.44,1.91,154.89,0c47.73-3,85.37-10.09,112.65-30.29s40.92-45.43,40.92-75.72q0-48.07-35.07-76.25T140.5,46.83Zm0,76.52H110.21q-73.87,0-114-33.61T-43.89-.19A105.62,105.62,0,0,1-32.47-48.55Q-21.05-71.12.34-88.27t54.6-27.1c22.14-6.64,73.87-10,73.87-10,34.05-3,154.91,0,154.91,0v19s-114.32-2.78-154.91.12C83.72-103,43.43-96.11,16.15-75.91S-24.76-30.48-24.76-.19q0,48.09,35.07,76.25t99.9,28.16h29.22q78.65,0,78.65,47,0,21.27-24.05,34.94c-16,9.13-40.18,11.14-72.13,13.68-22.57,1.8-154.89,0-154.89,0V180.75s112.61,1.86,154.89,0c26.54-1.17,46-2.74,58.45-8.23S199,159.93,199,151.25q0-15.13-13-21.52T140.5,123.35Zm0-38.26H110.21q-55.8,0-85.82-22.71T-5.63-.19q0-37.2,35.33-62c23.56-16.56,57.57-22.46,99.11-24.84,29.48-1.7,155,0,155,0V-67.9s-127.78-1.63-155,0c-35.38,2.06-65.94,6.37-85.69,19.13S13.5-19.85,13.5-.19q0,31.88,24.31,49T110.21,66h29.22Q196,66,226.18,88.68t30.16,62.57q0,37.2-35.34,62c-23.56,16.57-56.67,22.27-99.1,24.84-27.17,1.65-154.89,0-154.89,0V219s129.69,1.73,154.89,0c37.28-2.55,65.93-6.37,85.68-19.13s29.63-29,29.63-48.62q0-31.87-24.31-49T140.5,85.09Z" transform="translate(44.02 126.79)"/></g><path class="e" d="M101,66.88H97q-10.34,0-10.33-6.26,0-2.84,3.2-4.65c2.14-1.22,5.53-1.6,9.6-1.82,2.68-.15,17.08,0,20.08,0a.55.55,0,0,1,.55.56v1.42a.56.56,0,0,1-.56.56c-3,0-16.87-.21-20.07,0s-6.13.37-7.78,1.1-2.47,1.67-2.47,2.83a2.94,2.94,0,0,0,1.73,2.86c1.16.57,3.17.85,6,.85h4q9.84,0,15.17,4.47a14.85,14.85,0,0,1,5.34,12A14,14,0,0,1,120,87.21a15.9,15.9,0,0,1-4.37,5.29,21.36,21.36,0,0,1-7.26,3.61,39.14,39.14,0,0,1-9.83,1.32c-5.49.19-17.38,0-20.07,0a.56.56,0,0,1-.55-.56V95.46a.55.55,0,0,1,.56-.56c2.94,0,16.45.21,20.06,0,6.35-.4,11.36-1.35,15-4s5.45-6,5.45-10.08a12.34,12.34,0,0,0-4.67-10.15Q109.64,66.88,101,66.88Zm0,10.18H97q-9.84,0-15.17-4.47a14.81,14.81,0,0,1-5.34-12A14,14,0,0,1,78,54.18a16,16,0,0,1,4.37-5.29,21.17,21.17,0,0,1,7.26-3.6c3-.89,9.83-1.33,9.83-1.33,4-.35,17.23-.08,20.08,0a.56.56,0,0,1,.55.56v1.41a.57.57,0,0,1-.57.56c-2.81-.06-15.27-.32-20.06,0-6,.43-11.36,1.34-15,4S79,56.59,79,60.62a12.34,12.34,0,0,0,4.67,10.15q4.67,3.75,13.3,3.75h3.89q10.47,0,10.47,6.26,0,2.82-3.2,4.65c-2.14,1.21-5.35,1.48-9.6,1.82-2.69.21-17.07,0-20.07,0a.56.56,0,0,1-.55-.56V85.27a.56.56,0,0,1,.56-.56c2.78,0,15.08.21,20.06,0,3.53-.15,6.13-.36,7.78-1.09s2.47-1.68,2.47-2.83a3,3,0,0,0-1.73-2.87A15.21,15.21,0,0,0,101,77.06ZM101,72H97q-7.43,0-11.42-3a9.87,9.87,0,0,1-4-8.33q0-4.95,4.7-8.26c3.14-2.21,7.67-3,13.19-3.31,3.5-.2,17.16,0,20.08,0a.56.56,0,0,1,.55.56V51a.56.56,0,0,1-.56.56c-3,0-16.84-.19-20.07,0-4.7.27-8.77.85-11.4,2.55S84.1,58,84.1,60.62a7.48,7.48,0,0,0,3.23,6.52q3.24,2.28,9.64,2.28h3.89q7.53,0,11.55,3a9.85,9.85,0,0,1,4,8.33q0,4.95-4.7,8.25c-3.14,2.21-7.55,3-13.19,3.31-3.23.2-17.13,0-20.07,0a.56.56,0,0,1-.55-.56V90.36a.56.56,0,0,1,.56-.56c3,0,17.06.2,20.06,0,5-.33,8.77-.84,11.4-2.54s3.94-3.86,3.94-6.47a7.5,7.5,0,0,0-3.23-6.53Q107.4,72,101,72Z" transform="translate(44.02 126.79)"/><rect class="e" x="174.6" y="175.85" width="40.36" height="2.55" rx="0.56"/><rect class="e" x="174.6" y="221.94" width="42.56" height="2.55" rx="0.56"/><rect class="e" x="174.6" y="180.95" width="38.14" height="2.55" rx="0.56"/><rect class="e" x="174.6" y="216.85" width="40.36" height="2.55" rx="0.55"/><rect class="e" x="174.6" y="170.76" width="42.56" height="2.55" rx="0.56"/><rect class="e" x="174.6" y="201.46" width="25.31" height="2.55" rx="0.55"/><rect class="e" x="174.6" y="191.25" width="25.31" height="2.55" rx="0.55"/><rect class="e" x="174.6" y="196.36" width="25.31" height="2.55" rx="0.56"/><rect class="e" x="148.39" y="67.16" width="2.55" height="38.16" rx="0.55" transform="translate(107.12 362.51) rotate(-89.88)"/></svg>