<svg xmlns="http://www.w3.org/2000/svg" viewBox="0 0 158.22 33.94"><defs><style>.a{fill:#0c3153;}</style></defs><path class="a" d="M15.45,14.54H12.91c-4.33,0-6.5-1.32-6.5-3.94a3.35,3.35,0,0,1,2-2.93c1.34-.77,3.47-1,6-1.15,1.68-.09,10.74,0,12.64,0a.35.35,0,0,1,.34.35v.9a.35.35,0,0,1-.35.35c-1.87,0-10.62-.13-12.63,0a17.49,17.49,0,0,0-4.9.69C8.53,9.27,8,9.87,8,10.6A1.87,1.87,0,0,0,9.1,12.4a9.66,9.66,0,0,0,3.81.53h2.54q6.18,0,9.55,2.82a9.33,9.33,0,0,1,3.36,7.53,8.82,8.82,0,0,1-1,4,9.9,9.9,0,0,1-2.75,3.33,13.21,13.21,0,0,1-4.57,2.27,24.56,24.56,0,0,1-6.19.84c-3.46.11-10.94,0-12.63,0a.35.35,0,0,1-.35-.35v-.9a.36.36,0,0,1,.36-.35c1.85,0,10.35.14,12.62,0,4-.25,7.15-.84,9.44-2.53a7.65,7.65,0,0,0,3.43-6.35,7.78,7.78,0,0,0-2.94-6.39Q20.88,14.54,15.45,14.54Zm0,6.41H12.91q-6.2,0-9.55-2.82A9.33,9.33,0,0,1,0,10.6,8.89,8.89,0,0,1,1,6.54,9.84,9.84,0,0,1,3.71,3.22,13.21,13.21,0,0,1,8.28,1,40.47,40.47,0,0,1,14.47.11C17-.11,25.31.06,27.1.1a.36.36,0,0,1,.35.36v.88a.36.36,0,0,1-.36.36c-1.77,0-9.61-.2-12.62,0C10.69,2,7.32,2.56,5,4.25A7.65,7.65,0,0,0,1.6,10.6,7.75,7.75,0,0,0,4.54,17c2,1.58,4.75,2.36,8.37,2.36h2.45c4.39,0,6.59,1.32,6.59,3.94a3.35,3.35,0,0,1-2,2.93c-1.34.77-3.36.93-6,1.15-1.69.13-10.74,0-12.63,0A.35.35,0,0,1,.91,27v-.9a.36.36,0,0,1,.36-.35c1.75,0,9.49.13,12.62,0a15,15,0,0,0,4.9-.69c1-.46,1.56-1,1.56-1.78a1.86,1.86,0,0,0-1.1-1.8A9.39,9.39,0,0,0,15.45,21Zm0-3.21H12.91c-3.12,0-5.51-.63-7.19-1.9A6.2,6.2,0,0,1,3.21,10.6a6.16,6.16,0,0,1,3-5.2C8.14,4,11,3.52,14.47,3.32c2.2-.13,10.8,0,12.64,0a.35.35,0,0,1,.34.35v.91a.35.35,0,0,1-.35.35c-1.87,0-10.6-.12-12.63,0-3,.17-5.53.53-7.18,1.6A4.75,4.75,0,0,0,4.81,10.6a4.71,4.71,0,0,0,2,4.1q2,1.44,6.07,1.44h2.45q4.74,0,7.27,1.9a6.35,6.35,0,0,1-.44,10.44c-2,1.39-4.75,1.87-8.3,2.08-2,.13-10.78,0-12.63,0a.36.36,0,0,1-.35-.36v-.89A.36.36,0,0,1,1.27,29c1.88,0,10.74.13,12.62,0,3.12-.21,5.52-.53,7.18-1.6a4.75,4.75,0,0,0,2.48-4.08,4.7,4.7,0,0,0-2-4.1C20.16,18.22,18.13,17.74,15.45,17.74Z"/><rect class="a" x="34.06" y="3.33" width="25.4" height="1.6" rx="0.35"/><rect class="a" x="34.06" y="32.33" width="26.79" height="1.6" rx="0.35"/><rect class="a" x="34.06" y="6.53" width="24.01" height="1.6" rx="0.35"/><rect class="a" x="34.06" y="29.13" width="25.4" height="1.6" rx="0.35"/><rect class="a" x="34.06" y="0.12" width="26.79" height="1.6" rx="0.36"/><rect class="a" x="34.06" y="19.44" width="15.93" height="1.6" rx="0.35"/><rect class="a" x="34.06" y="13.02" width="15.93" height="1.6" rx="0.35"/><rect class="a" x="34.06" y="16.24" width="15.93" height="1.6" rx="0.35"/><rect class="a" x="45.27" y="14.71" width="1.6" height="24.02" rx="0.35" transform="translate(19.25 72.74) rotate(-89.88)"/><path class="a" d="M78.32,5.36l-.25,1.55-.26,0a3.08,3.08,0,0,0-1.87-.78,1.45,1.45,0,0,0-1,.32,1,1,0,0,0-.37.75A.86.86,0,0,0,75,8a6.41,6.41,0,0,0,1.2.62,11.24,11.24,0,0,1,1.24.6,2.82,2.82,0,0,1,.8.74,1.86,1.86,0,0,1,.34,1.14,2.47,2.47,0,0,1-.36,1.3,2.78,2.78,0,0,1-1.09,1,3.86,3.86,0,0,1-1.74.36,6.56,6.56,0,0,1-2.61-.54L73,11.49l.19-.1a3.61,3.61,0,0,0,1.17.77,3.14,3.14,0,0,0,1.23.28,1.53,1.53,0,0,0,1-.31,1,1,0,0,0,.38-.78.88.88,0,0,0-.39-.74A7.26,7.26,0,0,0,75.33,10a12.4,12.4,0,0,1-1.21-.6,2.63,2.63,0,0,1-.81-.75A2,2,0,0,1,73,7.49a2.3,2.3,0,0,1,.38-1.29,2.6,2.6,0,0,1,1.11-.92,3.85,3.85,0,0,1,1.68-.34A6,6,0,0,1,78.32,5.36Z"/><path class="a" d="M87,6a4.37,4.37,0,0,1,1,3.09,4.84,4.84,0,0,1-1.1,3.4,4,4,0,0,1-3.12,1.19,3.72,3.72,0,0,1-2.91-1.12,4.57,4.57,0,0,1-1-3.18A4.64,4.64,0,0,1,81,6.09a4.1,4.1,0,0,1,3.13-1.17A3.81,3.81,0,0,1,87,6ZM82.18,7a3.52,3.52,0,0,0-.57,2.24,4.13,4.13,0,0,0,.56,2.45,2.1,2.1,0,0,0,1.79.73,2.26,2.26,0,0,0,1.82-.69,3.53,3.53,0,0,0,.58-2.25A4,4,0,0,0,85.79,7,2.14,2.14,0,0,0,84,6.26,2.19,2.19,0,0,0,82.18,7Z"/><path class="a" d="M94.68,13.56H90L90,11,90,5h1.66l-.08,5.82,0,1.34H94.7l.1.14Z"/><path class="a" d="M103.07,10.64a2.75,2.75,0,0,1-.92,2.24,4,4,0,0,1-2.66.8,3.74,3.74,0,0,1-2.58-.79,2.78,2.78,0,0,1-.86-2.25l0-1.31L96,5h1.65l-.08,5.34a1.72,1.72,0,0,0,2,1.94c1.35,0,2-.64,2-1.94L101.48,5h1.65l0,4.34Z"/><path class="a" d="M111.47,5.48l-.3,1.45L111,7a3.3,3.3,0,0,0-2.12-.7c-1.57,0-2.35,1-2.35,2.93a3.73,3.73,0,0,0,.61,2.32,2.11,2.11,0,0,0,1.79.79,3.87,3.87,0,0,0,2.23-.69l.17.08-.14,1.45a5.54,5.54,0,0,1-2.35.52,3.86,3.86,0,0,1-3-1.12,4.5,4.5,0,0,1-1-3.2,4.49,4.49,0,0,1,1.1-3.27A4.09,4.09,0,0,1,109,4.94,5.18,5.18,0,0,1,111.47,5.48Z"/><path class="a" d="M114.84,13.56h-1.63l.07-2.55-.07-6h1.65l-.09,5.82Z"/><path class="a" d="M124,6a4.37,4.37,0,0,1,1,3.09,4.84,4.84,0,0,1-1.1,3.4,4,4,0,0,1-3.12,1.19,3.72,3.72,0,0,1-2.91-1.12,4.57,4.57,0,0,1-1-3.18A4.64,4.64,0,0,1,118,6.09a4.06,4.06,0,0,1,3.12-1.17A3.81,3.81,0,0,1,124,6ZM119.16,7a3.52,3.52,0,0,0-.57,2.24,4.06,4.06,0,0,0,.56,2.45,2.09,2.09,0,0,0,1.78.73,2.23,2.23,0,0,0,1.82-.69,3.47,3.47,0,0,0,.58-2.25A4,4,0,0,0,122.77,7,2.14,2.14,0,0,0,121,6.26,2.18,2.18,0,0,0,119.16,7Z"/><path class="a" d="M134.33,13.56h-1.77l-4-6h-.1l0,3.1.06,2.89H127l.06-2.5L127,5h1.74l4,6h.14l-.05-5.94L134.36,5l-.08,6Z"/><path class="a" d="M142.65,12.32l-.14,1.24h-5.46l.07-2.55-.07-6h5.51l.11.14-.12,1.24-2.17-.09-1.7,0,0,2.21,1.63,0,1.48-.05.09.13-.1,1.26-1.6-.05-1.52,0,0,1,0,1.39,1.58,0,2.3-.07Z"/><path class="a" d="M149.39,5.36l-.26,1.55-.25,0A3.1,3.1,0,0,0,147,6.18a1.45,1.45,0,0,0-1,.32,1,1,0,0,0-.37.75A.84.84,0,0,0,146,8a5.82,5.82,0,0,0,1.2.62,10.18,10.18,0,0,1,1.23.6,3,3,0,0,1,.81.74,1.92,1.92,0,0,1,.34,1.14,2.39,2.39,0,0,1-.37,1.3,2.71,2.71,0,0,1-1.09,1,3.86,3.86,0,0,1-1.74.36,6.48,6.48,0,0,1-2.6-.54l.22-1.65.18-.1a3.61,3.61,0,0,0,1.17.77,3.18,3.18,0,0,0,1.23.28,1.53,1.53,0,0,0,1-.31,1,1,0,0,0,.38-.78.88.88,0,0,0-.39-.74,6.87,6.87,0,0,0-1.21-.62,12.4,12.4,0,0,1-1.21-.6,2.72,2.72,0,0,1-.8-.75A1.89,1.89,0,0,1,144,7.49a2.23,2.23,0,0,1,.39-1.29,2.52,2.52,0,0,1,1.1-.92,3.85,3.85,0,0,1,1.68-.34A6.07,6.07,0,0,1,149.39,5.36Z"/><path class="a" d="M78.34,27.65l-.13,1.25H72.74l.07-2.56-.07-6h5.52l.1.14-.12,1.24-2.16-.09-1.7,0,0,2.21,1.64,0,1.48-.05.08.13-.1,1.26-1.6-.05-1.52,0v1l0,1.4h1.58l2.3-.07Z"/><path class="a" d="M88,28.9l-.17-2.59-.39-3.47h-.1L85.11,28H83.84l-2-5.15h-.14l-.38,3.32-.22,2.74H79.69l.91-8.53h1.91l.39,1.26,1.6,4.2h.12l1.7-4.22.43-1.24H88.6l.84,8.53Z"/><path class="a" d="M97,21a2.39,2.39,0,0,1,.76,1.91,2.9,2.9,0,0,1-1,2.31,3.87,3.87,0,0,1-2.62.84h-1v.1l.07,2.71H91.66l.07-2.56-.07-6,3.24,0A3.08,3.08,0,0,1,97,21Zm-1,2c0-.93-.55-1.43-1.67-1.48l-1.1,0,0,3.2,1.36,0A1.65,1.65,0,0,0,96.07,23.08Z"/><path class="a" d="M106.3,28.5l0,.21a8.46,8.46,0,0,1-1.55.31l-.25-.16c-.83-1.34-1.42-2.31-1.76-2.93l-1.49,0v.24l.06,2.71H99.66l.07-2.56-.07-6,3.23,0A3.17,3.17,0,0,1,105,21a2.33,2.33,0,0,1,.76,1.85,2.68,2.68,0,0,1-.45,1.51,3.56,3.56,0,0,1-1.27,1.12C104.73,26.48,105.47,27.48,106.3,28.5Zm-3.58-3.81A1.64,1.64,0,0,0,104.07,23a1.25,1.25,0,0,0-.41-1,2.15,2.15,0,0,0-1.24-.37l-1.13,0-.05,3Z"/><path class="a" d="M113.77,27.65l-.14,1.25h-5.46l.07-2.56-.07-6h5.51l.1.14-.11,1.24-2.16-.09-1.71,0,0,2.21,1.63,0,1.48-.05L113,24l-.1,1.26-1.6-.05-1.52,0,0,1,0,1.4h1.58l2.3-.07Z"/><path class="a" d="M120.51,20.69l-.26,1.55-.25.05a3.1,3.1,0,0,0-1.88-.78,1.45,1.45,0,0,0-1,.32,1,1,0,0,0-.37.75.84.84,0,0,0,.39.71,5.82,5.82,0,0,0,1.2.62,11.94,11.94,0,0,1,1.23.6,3,3,0,0,1,.81.74,1.92,1.92,0,0,1,.34,1.14,2.39,2.39,0,0,1-.37,1.3,2.58,2.58,0,0,1-1.09,1,3.85,3.85,0,0,1-1.74.37,6.49,6.49,0,0,1-2.6-.55l.22-1.65.18-.1a3.61,3.61,0,0,0,1.17.77,3.18,3.18,0,0,0,1.23.28,1.53,1.53,0,0,0,1-.31,1,1,0,0,0,.38-.78.88.88,0,0,0-.39-.74,6.87,6.87,0,0,0-1.21-.62,10.48,10.48,0,0,1-1.21-.6,2.72,2.72,0,0,1-.8-.75,1.89,1.89,0,0,1-.34-1.15,2.23,2.23,0,0,1,.39-1.29,2.58,2.58,0,0,1,1.1-.92,3.85,3.85,0,0,1,1.68-.34A6.07,6.07,0,0,1,120.51,20.69Z"/><path class="a" d="M128.08,28.9l-.22-1.06-.31-.94h-3.61l-.32.86-.24,1.14h-1.61L125,20.37h1.9l2.88,8.53Zm-2.16-7h-.12l-1.38,3.73,1.35,0,1.36,0Z"/><path class="a" d="M138.15,28.5v.21a8.46,8.46,0,0,1-1.55.31l-.26-.16c-.83-1.34-1.41-2.31-1.75-2.93l-1.5,0v.24l.07,2.71h-1.63l.06-2.56-.06-6,3.23,0a3.17,3.17,0,0,1,2.14.66,2.33,2.33,0,0,1,.75,1.85,2.68,2.68,0,0,1-.45,1.51,3.4,3.4,0,0,1-1.27,1.12C136.58,26.48,137.33,27.48,138.15,28.5Zm-3.57-3.81A1.63,1.63,0,0,0,135.92,23a1.24,1.24,0,0,0-.4-1,2.18,2.18,0,0,0-1.25-.37l-1.12,0-.05,3Z"/><path class="a" d="M141.66,28.9H140l.06-2.56-.06-6h1.65l-.09,5.82Z"/><path class="a" d="M149.64,28.9l-.22-1.06-.31-.94H145.5l-.32.86-.24,1.14h-1.61l3.18-8.53h1.9l2.88,8.53Zm-2.16-7h-.12L146,25.63l1.34,0,1.37,0Z"/><path class="a" d="M158,20.69l-.25,1.55-.26.05a3.06,3.06,0,0,0-1.87-.78,1.45,1.45,0,0,0-1,.32,1,1,0,0,0-.37.75.86.86,0,0,0,.38.71,6.41,6.41,0,0,0,1.2.62,12.24,12.24,0,0,1,1.24.6,2.82,2.82,0,0,1,.8.74,1.86,1.86,0,0,1,.35,1.14,2.48,2.48,0,0,1-.37,1.3,2.64,2.64,0,0,1-1.09,1A3.85,3.85,0,0,1,155,29a6.57,6.57,0,0,1-2.61-.55l.22-1.65.19-.1a3.61,3.61,0,0,0,1.17.77,3.14,3.14,0,0,0,1.23.28,1.53,1.53,0,0,0,1-.31,1,1,0,0,0,.38-.78.88.88,0,0,0-.39-.74,7.26,7.26,0,0,0-1.21-.62,10.48,10.48,0,0,1-1.21-.6A2.63,2.63,0,0,1,153,24a2,2,0,0,1-.33-1.15,2.3,2.3,0,0,1,.38-1.29,2.67,2.67,0,0,1,1.11-.92,3.85,3.85,0,0,1,1.68-.34A6,6,0,0,1,158,20.69Z"/></svg>