<svg xmlns="http://www.w3.org/2000/svg" viewBox="0 0 1029.8 382.81"><defs><style>.a{fill:none;stroke:#69B578;}</style></defs><path class="a" d="M1.27,159.5V128.28h27V34.62h-27V3.4H92.48V34.62h-27v93.66h27V159.5Z"/><path class="a" d="M228.51,208.11q-13.83,0-23.64-4.9a34.57,34.57,0,0,1-14.94-13.83,40.87,40.87,0,0,1-5.13-20.74c0-1.64,0-3.31.11-5a51.11,51.11,0,0,1,.56-5.46,78.5,78.5,0,0,1-31.22-6.47,74.23,74.23,0,0,1-39.8-41.81A83,83,0,0,1,109,79.67a82.45,82.45,0,0,1,5.69-30.78,74.47,74.47,0,0,1,41.81-42A86.72,86.72,0,0,1,189.71.72a91.33,91.33,0,0,1,33.23,5.8,73.16,73.16,0,0,1,42,41.26,80.67,80.67,0,0,1,5.69,30.55v85.85A52.23,52.23,0,0,1,266.09,186a36.94,36.94,0,0,1-13.94,16.05Q242.78,208.12,228.51,208.11ZM188.37,126.5a43.36,43.36,0,0,0,4.57-.23c1.41-.14,2.86-.37,4.35-.67a103.3,103.3,0,0,1,9.37-11.93,119.42,119.42,0,0,1,12-11.48,122.6,122.6,0,0,1,14.72-10.48V77.21a48.38,48.38,0,0,0-3.24-17.84,41.76,41.76,0,0,0-23-23.64,43.89,43.89,0,0,0-17.28-3.34,42.6,42.6,0,0,0-17.28,3.46,40.45,40.45,0,0,0-13.83,9.92,46.11,46.11,0,0,0-9.14,15,52.34,52.34,0,0,0-3.23,18.62,54.86,54.86,0,0,0,3,18.51,44,44,0,0,0,8.69,14.83,40.63,40.63,0,0,0,13.38,9.92A42,42,0,0,0,188.37,126.5Zm38.13,49.72a7.5,7.5,0,0,0,6.58-3.45,15.84,15.84,0,0,0,2.34-9V127.39a54.81,54.81,0,0,0-10.14,11.15A42.3,42.3,0,0,0,220,149a40.42,40.42,0,0,0-1.9,8.69q-.33,3.79-.33,6a18.44,18.44,0,0,0,1.11,6.8,9,9,0,0,0,3.23,4.23A7.63,7.63,0,0,0,226.5,176.22Z"/><path class="a" d="M404.45,162.17A51.37,51.37,0,0,1,379.26,156,45.56,45.56,0,0,1,361.64,139a47.56,47.56,0,0,1-6.47-24.75V46a12.13,12.13,0,0,0-1.78-6.47,14.18,14.18,0,0,0-4.69-4.68,12.63,12.63,0,0,0-12.93,0,13.13,13.13,0,0,0-4.57,4.68A12.71,12.71,0,0,0,329.53,46V159.5H293V48.67q0-14.06,6.36-24.75A46,46,0,0,1,316.93,7a54.6,54.6,0,0,1,50.73,0,47.1,47.1,0,0,1,17.62,17q6.47,10.7,6.46,24.75v68.24a12.62,12.62,0,0,0,1.79,6.57,13.18,13.18,0,0,0,4.57,4.69,11.74,11.74,0,0,0,6.13,1.67,13.38,13.38,0,0,0,6.58-1.67,12.9,12.9,0,0,0,6.58-11.26V3.4h36.35V114.23A47.66,47.66,0,0,1,447.27,139,45.56,45.56,0,0,1,429.65,156,51.38,51.38,0,0,1,404.45,162.17Z"/><path class="a" d="M466,159.5l50.62-138A29.35,29.35,0,0,1,529.11,6,37.31,37.31,0,0,1,548.73.72a38.62,38.62,0,0,1,19.63,5q8.68,5,12.48,15.5L631.69,159.5H591.33l-9.82-30.11H515.28L505,159.5Zm58.87-61.1h47L552.08,36.18a3.75,3.75,0,0,0-1.23-1.9,3.24,3.24,0,0,0-1.89-.55,2.79,2.79,0,0,0-1.9.67,3,3,0,0,0-1,1.78Z"/><path class="a" d="M714.42,159.5q-19.18-.23-34.56-6.25a76.52,76.52,0,0,1-26.09-16.5,72.53,72.53,0,0,1-16.51-24.64,80.23,80.23,0,0,1-5.79-30.66,80.23,80.23,0,0,1,5.79-30.66,71.68,71.68,0,0,1,16.62-24.64A78.17,78.17,0,0,1,680,9.64q15.27-6,34.45-6.24h24.09V34.62h-23.2a52.11,52.11,0,0,0-19.06,3.79,44.07,44.07,0,0,0-14.72,9.81,42.34,42.34,0,0,0-9.37,14.72,51.64,51.64,0,0,0-3.23,18.51A51.64,51.64,0,0,0,672.16,100a42.25,42.25,0,0,0,9.37,14.72,44.07,44.07,0,0,0,14.72,9.81,52.11,52.11,0,0,0,19.06,3.79h23.2V159.5Z"/><path class="a" d="M756.12,159.5V128.28h27V34.62h-27V3.4h91.21V34.62h-27v93.66h27V159.5Z"/><path class="a" d="M946.56,162.4a88.24,88.24,0,0,1-33.89-6.25,77,77,0,0,1-26.09-17.39,78.12,78.12,0,0,1-16.84-25.87,84.14,84.14,0,0,1-5.91-31.66,83.36,83.36,0,0,1,5.91-31.56,78.43,78.43,0,0,1,16.84-25.75A75.77,75.77,0,0,1,912.67,6.63a96.47,96.47,0,0,1,67.68,0,74.48,74.48,0,0,1,26.09,17.29,80.86,80.86,0,0,1,16.83,25.75,81.91,81.91,0,0,1,6,31.56,82.67,82.67,0,0,1-6,31.66,80.51,80.51,0,0,1-16.83,25.87,75.68,75.68,0,0,1-26.09,17.39A88.59,88.59,0,0,1,946.56,162.4Zm0-31.89a44.72,44.72,0,0,0,18.18-3.68,41.68,41.68,0,0,0,14.38-10.37,48.21,48.21,0,0,0,9.37-15.72,55.72,55.72,0,0,0,3.34-19.51,54.78,54.78,0,0,0-3.34-19.4,48.47,48.47,0,0,0-9.37-15.62,41.65,41.65,0,0,0-14.38-10.36,47,47,0,0,0-36.46,0,43,43,0,0,0-14.39,10.36,45.94,45.94,0,0,0-9.36,15.62,56.38,56.38,0,0,0-3.24,19.4,57.34,57.34,0,0,0,3.24,19.51,45.72,45.72,0,0,0,9.36,15.72,43.08,43.08,0,0,0,14.39,10.37A44.39,44.39,0,0,0,946.56,130.51Z"/><path class="a" d="M80.85,379.5a94.2,94.2,0,0,1-33.48-6.05,74.32,74.32,0,0,1-25.27-16,70.23,70.23,0,0,1-16-23.87,81.29,81.29,0,0,1,0-59.4,69.47,69.47,0,0,1,16.09-23.87,75.44,75.44,0,0,1,25.27-16q14.79-5.83,33.37-6h23.33v30.24H81.72a50.52,50.52,0,0,0-18.47,3.67A42.89,42.89,0,0,0,49,271.71,41,41,0,0,0,39.92,286a52.92,52.92,0,0,0,0,35.86A40.9,40.9,0,0,0,49,336.08a42.46,42.46,0,0,0,14.26,9.51,50.52,50.52,0,0,0,18.47,3.67h22.46V379.5Z"/><path class="a" d="M188.42,382.09q-18.79,0-33.37-7.56a55.38,55.38,0,0,1-22.79-21.6q-8.2-14-8.21-33.48V228.3h35.86v93.1a33.15,33.15,0,0,0,3.45,15.22,26.61,26.61,0,0,0,9.94,10.8,28.17,28.17,0,0,0,15.12,4,27.5,27.5,0,0,0,15.12-4,27.94,27.94,0,0,0,9.83-10.8,32.35,32.35,0,0,0,3.56-15.22V228.3h35.86v91.15q0,19.44-8.32,33.48a56.23,56.23,0,0,1-22.79,21.6Q207.21,382.09,188.42,382.09Z"/><path class="a" d="M265.1,379.5l49-133.71a28.4,28.4,0,0,1,12.1-15,36.12,36.12,0,0,1,19-5.07,37.31,37.31,0,0,1,19,4.86q8.43,4.86,12.1,15L425.59,379.5h-39.1L377,350.34H312.84L302.9,379.5Zm57-59.19H367.7l-19.22-60.26a3.66,3.66,0,0,0-1.19-1.84,3.17,3.17,0,0,0-1.84-.54,2.71,2.71,0,0,0-1.83.65,3,3,0,0,0-1,1.73Z"/><path class="a" d="M435.52,379.5V228.3H491q24,0,41.57,9.72a70.18,70.18,0,0,1,27.44,26.78q9.83,17.07,9.83,39.1T560.05,343a70.18,70.18,0,0,1-27.44,26.78Q515,379.5,491,379.5Zm36.29-30.24h18.36a45,45,0,0,0,22.36-5.51A39.37,39.37,0,0,0,528,328.09q5.61-10.15,5.62-24.19T528,279.71a39.37,39.37,0,0,0-15.44-15.66,45,45,0,0,0-22.36-5.51H471.81Z"/><path class="a" d="M589.1,379.5V228.3h69.12a58.73,58.73,0,0,1,28,6.7,52,52,0,0,1,20.09,18.57q7.46,11.88,7.45,27.43a49.69,49.69,0,0,1-6.91,26,55.55,55.55,0,0,1-18.15,18.68l12.1,20.52a8.59,8.59,0,0,0,2.48,2.38,7.15,7.15,0,0,0,3.78.87h13.4v30H699.26A35.12,35.12,0,0,1,669,362.65l-16.2-28.73H625.39V379.5Zm36.29-75.6h28.72a25.73,25.73,0,0,0,11.67-2.7,20.68,20.68,0,0,0,8.53-7.78,22.75,22.75,0,0,0,3.13-12.2A22.19,22.19,0,0,0,674.2,269a21.57,21.57,0,0,0-8.53-7.78,25.07,25.07,0,0,0-11.56-2.7H625.39Z"/><path class="a" d="M810.06,382.31a85.53,85.53,0,0,1-32.83-6.05A74.73,74.73,0,0,1,752,359.41a75.7,75.7,0,0,1-16.31-25.06,84.79,84.79,0,0,1,0-61.23,76.06,76.06,0,0,1,16.31-25,73.45,73.45,0,0,1,25.27-16.74,93.42,93.42,0,0,1,65.56,0,72.24,72.24,0,0,1,25.27,16.74,78.52,78.52,0,0,1,16.31,25,83.3,83.3,0,0,1,0,61.23,78.13,78.13,0,0,1-16.31,25.06,73.48,73.48,0,0,1-25.27,16.85A85.77,85.77,0,0,1,810.06,382.31Zm0-30.89a43.18,43.18,0,0,0,17.61-3.57,40.34,40.34,0,0,0,13.93-10,46.67,46.67,0,0,0,9.07-15.23,54,54,0,0,0,3.24-18.9,53.12,53.12,0,0,0-3.24-18.79,47,47,0,0,0-9.07-15.12,40.34,40.34,0,0,0-13.93-10,45.46,45.46,0,0,0-35.32,0,41.69,41.69,0,0,0-13.93,10,44.48,44.48,0,0,0-9.07,15.12,54.72,54.72,0,0,0-3.13,18.79,55.6,55.6,0,0,0,3.13,18.9,44.21,44.21,0,0,0,9.07,15.23,41.69,41.69,0,0,0,13.93,10A42.94,42.94,0,0,0,810.06,351.42Z"/><path class="a" d="M910.29,379.5V349.26h64.58a14.4,14.4,0,0,0,7.78-2.16,16.46,16.46,0,0,0,5.51-5.62,14.59,14.59,0,0,0,2.05-7.56,15,15,0,0,0-2.05-7.77,16.55,16.55,0,0,0-5.51-5.62,14.4,14.4,0,0,0-7.78-2.16H951.54a53.71,53.71,0,0,1-24-5.29,41.8,41.8,0,0,1-17.17-15.23q-6.37-9.93-6.38-24,0-13.83,6.05-24A43,43,0,0,1,926.49,234a46.62,46.62,0,0,1,22.89-5.72h66.75v30.24H953.49a13.66,13.66,0,0,0-7.13,1.94,13.25,13.25,0,0,0-5,5.19,14.91,14.91,0,0,0-1.73,7.12,14.27,14.27,0,0,0,1.73,7,13.38,13.38,0,0,0,5,5.08,13.57,13.57,0,0,0,7.13,1.94H977.9q14.46,0,25.16,5.51a40.86,40.86,0,0,1,16.63,15.34q5.94,9.82,5.94,23,0,15.56-6.15,26.46A42.17,42.17,0,0,1,1003,373.77a46.52,46.52,0,0,1-22.89,5.73Z"/></svg>