<svg xmlns="http://www.w3.org/2000/svg" viewBox="0 0 1029.8 382.81"><defs><style>.a{fill:none;stroke:#69b578}</style></defs><path class="a" d="M1.27 159.5v-31.22h27V34.62h-27V3.4h91.21v31.22h-27v93.66h27v31.22zM228.51 208.11q-13.83 0-23.64-4.9a34.57 34.57 0 01-14.94-13.83 40.87 40.87 0 01-5.13-20.74c0-1.64 0-3.31.11-5a51.11 51.11 0 01.56-5.46 78.5 78.5 0 01-31.22-6.47 74.23 74.23 0 01-39.8-41.81A83 83 0 01109 79.67a82.45 82.45 0 015.69-30.78 74.47 74.47 0 0141.81-42A86.72 86.72 0 01189.71.72a91.33 91.33 0 0133.23 5.8 73.16 73.16 0 0142 41.26 80.67 80.67 0 015.69 30.55v85.85a52.23 52.23 0 01-4.54 21.82 36.94 36.94 0 01-13.94 16.05q-9.37 6.07-23.64 6.06zm-40.14-81.61a43.36 43.36 0 004.57-.23c1.41-.14 2.86-.37 4.35-.67a103.3 103.3 0 019.37-11.93 119.42 119.42 0 0112-11.48 122.6 122.6 0 0114.72-10.48v-14.5a48.38 48.38 0 00-3.24-17.84 41.76 41.76 0 00-23-23.64 43.89 43.89 0 00-17.28-3.34 42.6 42.6 0 00-17.28 3.46 40.45 40.45 0 00-13.83 9.92 46.11 46.11 0 00-9.14 15 52.34 52.34 0 00-3.23 18.62 54.86 54.86 0 003 18.51 44 44 0 008.69 14.83 40.63 40.63 0 0013.38 9.92 42 42 0 0016.92 3.85zm38.13 49.72a7.5 7.5 0 006.58-3.45 15.84 15.84 0 002.34-9v-36.38a54.81 54.81 0 00-10.14 11.15A42.3 42.3 0 00220 149a40.42 40.42 0 00-1.9 8.69q-.33 3.79-.33 6a18.44 18.44 0 001.11 6.8 9 9 0 003.23 4.23 7.63 7.63 0 004.39 1.5zM404.45 162.17a51.37 51.37 0 01-25.19-6.17 45.56 45.56 0 01-17.62-17 47.56 47.56 0 01-6.47-24.75V46a12.13 12.13 0 00-1.78-6.47 14.18 14.18 0 00-4.69-4.68 12.63 12.63 0 00-12.93 0 13.13 13.13 0 00-4.57 4.68 12.71 12.71 0 00-1.67 6.47v113.5H293V48.67q0-14.06 6.36-24.75A46 46 0 01316.93 7a54.6 54.6 0 0150.73 0 47.1 47.1 0 0117.62 17q6.47 10.7 6.46 24.75v68.24a12.62 12.62 0 001.79 6.57 13.18 13.18 0 004.57 4.69 11.74 11.74 0 006.13 1.67 13.38 13.38 0 006.58-1.67 12.9 12.9 0 006.58-11.26V3.4h36.35v110.83a47.66 47.66 0 01-6.47 24.77 45.56 45.56 0 01-17.62 17 51.38 51.38 0 01-25.2 6.17zM466 159.5l50.62-138A29.35 29.35 0 01529.11 6 37.31 37.31 0 01548.73.72a38.62 38.62 0 0119.63 5q8.68 5 12.48 15.5l50.85 138.28h-40.36l-9.82-30.11h-66.23L505 159.5zm58.87-61.1h47l-19.79-62.22a3.75 3.75 0 00-1.23-1.9 3.24 3.24 0 00-1.89-.55 2.79 2.79 0 00-1.9.67 3 3 0 00-1 1.78zM714.42 159.5q-19.18-.23-34.56-6.25a76.52 76.52 0 01-26.09-16.5 72.53 72.53 0 01-16.51-24.64 80.23 80.23 0 01-5.79-30.66 80.23 80.23 0 015.79-30.66 71.68 71.68 0 0116.62-24.64A78.17 78.17 0 01680 9.64q15.27-6 34.45-6.24h24.09v31.22h-23.2a52.11 52.11 0 00-19.06 3.79 44.07 44.07 0 00-14.72 9.81 42.34 42.34 0 00-9.37 14.72 51.64 51.64 0 00-3.23 18.51 51.64 51.64 0 003.2 18.55 42.25 42.25 0 009.37 14.72 44.07 44.07 0 0014.72 9.81 52.11 52.11 0 0019.06 3.79h23.2v31.18zM756.12 159.5v-31.22h27V34.62h-27V3.4h91.21v31.22h-27v93.66h27v31.22zM946.56 162.4a88.24 88.24 0 01-33.89-6.25 77 77 0 01-26.09-17.39 78.12 78.12 0 01-16.84-25.87 84.14 84.14 0 01-5.91-31.66 83.36 83.36 0 015.91-31.56 78.43 78.43 0 0116.84-25.75 75.77 75.77 0 0126.09-17.29 96.47 96.47 0 0167.68 0 74.48 74.48 0 0126.09 17.29 80.86 80.86 0 0116.83 25.75 81.91 81.91 0 016 31.56 82.67 82.67 0 01-6 31.66 80.51 80.51 0 01-16.83 25.87 75.68 75.68 0 01-26.09 17.39 88.59 88.59 0 01-33.79 6.25zm0-31.89a44.72 44.72 0 0018.18-3.68 41.68 41.68 0 0014.38-10.37 48.21 48.21 0 009.37-15.72 55.72 55.72 0 003.34-19.51 54.78 54.78 0 00-3.34-19.4 48.47 48.47 0 00-9.37-15.62 41.65 41.65 0 00-14.38-10.36 47 47 0 00-36.46 0 43 43 0 00-14.39 10.36 45.94 45.94 0 00-9.36 15.62 56.38 56.38 0 00-3.24 19.4 57.34 57.34 0 003.24 19.51 45.72 45.72 0 009.36 15.72 43.08 43.08 0 0014.39 10.37 44.39 44.39 0 0018.28 3.68zM80.85 379.5a94.2 94.2 0 01-33.48-6.05 74.32 74.32 0 01-25.27-16 70.23 70.23 0 01-16-23.87 81.29 81.29 0 010-59.4 69.47 69.47 0 0116.09-23.87 75.44 75.44 0 0125.27-16q14.79-5.83 33.37-6h23.33v30.24H81.72a50.52 50.52 0 00-18.47 3.67A42.89 42.89 0 0049 271.71 41 41 0 0039.92 286a52.92 52.92 0 000 35.86A40.9 40.9 0 0049 336.08a42.46 42.46 0 0014.26 9.51 50.52 50.52 0 0018.47 3.67h22.46v30.24zM188.42 382.09q-18.79 0-33.37-7.56a55.38 55.38 0 01-22.79-21.6q-8.2-14-8.21-33.48V228.3h35.86v93.1a33.15 33.15 0 003.45 15.22 26.61 26.61 0 009.94 10.8 28.17 28.17 0 0015.12 4 27.5 27.5 0 0015.12-4 27.94 27.94 0 009.83-10.8 32.35 32.35 0 003.56-15.22v-93.1h35.86v91.15q0 19.44-8.32 33.48a56.23 56.23 0 01-22.79 21.6q-14.47 7.56-33.26 7.56zM265.1 379.5l49-133.71a28.4 28.4 0 0112.1-15 36.12 36.12 0 0119-5.07 37.31 37.31 0 0119 4.86q8.43 4.86 12.1 15l49.29 133.92h-39.1L377 350.34h-64.16l-9.94 29.16zm57-59.19h45.6l-19.22-60.26a3.66 3.66 0 00-1.19-1.84 3.17 3.17 0 00-1.84-.54 2.71 2.71 0 00-1.83.65 3 3 0 00-1 1.73zM435.52 379.5V228.3H491q24 0 41.57 9.72a70.18 70.18 0 0127.44 26.78q9.83 17.07 9.83 39.1t-9.79 39.1a70.18 70.18 0 01-27.44 26.78Q515 379.5 491 379.5zm36.29-30.24h18.36a45 45 0 0022.36-5.51A39.37 39.37 0 00528 328.09q5.61-10.15 5.62-24.19T528 279.71a39.37 39.37 0 00-15.44-15.66 45 45 0 00-22.36-5.51h-18.39zM589.1 379.5V228.3h69.12a58.73 58.73 0 0128 6.7 52 52 0 0120.09 18.57q7.46 11.88 7.45 27.43a49.69 49.69 0 01-6.91 26 55.55 55.55 0 01-18.15 18.68l12.1 20.52a8.59 8.59 0 002.48 2.38 7.15 7.15 0 003.78.87h13.4v30h-21.2a35.12 35.12 0 01-30.26-16.8l-16.2-28.73h-27.41v45.58zm36.29-75.6h28.72a25.73 25.73 0 0011.67-2.7 20.68 20.68 0 008.53-7.78 22.75 22.75 0 003.13-12.2A22.19 22.19 0 00674.2 269a21.57 21.57 0 00-8.53-7.78 25.07 25.07 0 00-11.56-2.7h-28.72zM810.06 382.31a85.53 85.53 0 01-32.83-6.05A74.73 74.73 0 01752 359.41a75.7 75.7 0 01-16.31-25.06 84.79 84.79 0 010-61.23 76.06 76.06 0 0116.31-25 73.45 73.45 0 0125.27-16.74 93.42 93.42 0 0165.56 0 72.24 72.24 0 0125.27 16.74 78.52 78.52 0 0116.31 25 83.3 83.3 0 010 61.23 78.13 78.13 0 01-16.31 25.06 73.48 73.48 0 01-25.27 16.85 85.77 85.77 0 01-32.77 6.05zm0-30.89a43.18 43.18 0 0017.61-3.57 40.34 40.34 0 0013.93-10 46.67 46.67 0 009.07-15.23 54 54 0 003.24-18.9 53.12 53.12 0 00-3.24-18.79 47 47 0 00-9.07-15.12 40.34 40.34 0 00-13.93-10 45.46 45.46 0 00-35.32 0 41.69 41.69 0 00-13.93 10 44.48 44.48 0 00-9.07 15.12 54.72 54.72 0 00-3.13 18.79 55.6 55.6 0 003.13 18.9 44.21 44.21 0 009.07 15.23 41.69 41.69 0 0013.93 10 42.94 42.94 0 0017.71 3.57zM910.29 379.5v-30.24h64.58a14.4 14.4 0 007.78-2.16 16.46 16.46 0 005.51-5.62 14.59 14.59 0 002.05-7.56 15 15 0 00-2.05-7.77 16.55 16.55 0 00-5.51-5.62 14.4 14.4 0 00-7.78-2.16h-23.33a53.71 53.71 0 01-24-5.29 41.8 41.8 0 01-17.17-15.23q-6.37-9.93-6.38-24 0-13.83 6.05-24A43 43 0 01926.49 234a46.62 46.62 0 0122.89-5.72h66.75v30.24h-62.64a13.66 13.66 0 00-7.13 1.94 13.25 13.25 0 00-5 5.19 14.91 14.91 0 00-1.73 7.12 14.27 14.27 0 001.73 7 13.38 13.38 0 005 5.08 13.57 13.57 0 007.13 1.94h24.41q14.46 0 25.16 5.51a40.86 40.86 0 0116.63 15.34q5.94 9.82 5.94 23 0 15.56-6.15 26.46a42.17 42.17 0 01-16.48 16.67 46.52 46.52 0 01-22.89 5.73z"/></svg>