<svg xmlns="http://www.w3.org/2000/svg" viewBox="0 0 284.45 516.4" fill="#69B578"><path d="M3.84 427.07V87.5c0-7.54 6.85-11.32 20.58-11.32h10.8c5.48 0 9.85.69 13.12 2.06 3.26 1.37 6.08 3.95 8.49 7.72l161.54 243.86c5.83 8.58 11.49 18.86 16.98 30.86l2.06-.51c-.69-7.89-1.03-19.55-1.03-34.98V87.5c0-7.54 6.85-11.32 20.58-11.32h3.6c13.71 0 20.58 3.78 20.58 11.32v339.56c0 7.54-6.87 11.32-20.58 11.32h-10.29c-8.92 0-14.92-2.4-18-7.2L66.6 181.14c-5.83-8.57-11.49-18.86-16.98-30.87l-2.06.51c.68 7.9 1.03 19.55 1.03 34.98v241.3c0 7.54-6.87 11.32-20.58 11.32h-3.6c-13.72.01-20.57-3.77-20.57-11.31zM2.82 41.16V12.35C2.82 4.12 11.05 0 27.52 0c15.09 0 22.64 4.11 22.64 12.35v28.81c0 8.23-8.23 12.35-24.7 12.35-15.1 0-22.64-4.12-22.64-12.35zM234.82 503.16v-28.81c0-8.23 8.23-12.35 24.7-12.35 15.09 0 22.64 4.11 22.64 12.35v28.81c0 8.23-8.23 12.35-24.7 12.35-15.1 0-22.64-4.12-22.64-12.35z"/></svg>