<svg xmlns="http://www.w3.org/2000/svg" viewBox="0 0 284.45 516.4" fill="#69B578"><path d=" M 3.84 427.07 L 3.84 87.5 C 3.84 79.96 10.69 76.18 24.42 76.18 L 35.22 76.18 C 40.7 76.18 45.07 76.87 48.34 78.24 C 51.6 79.61 54.42 82.19 56.83 85.96 L 218.37 329.82 C 224.2 338.4 229.86 348.68 235.35 360.68 L 237.41 360.17 C 236.72 352.28 236.38 340.62 236.38 325.19 L 236.38 87.5 C 236.38 79.96 243.23 76.18 256.96 76.18 L 260.56 76.18 C 274.27 76.18 281.14 79.96 281.14 87.5 L 281.14 427.06 C 281.14 434.6 274.27 438.38 260.56 438.38 L 250.27 438.38 C 241.35 438.38 235.35 435.98 232.27 431.18 L 66.6 181.14 C 60.77 172.57 55.11 162.28 49.62 150.27 L 47.56 150.78 C 48.24 158.68 48.59 170.33 48.59 185.76 L 48.59 427.06 C 48.59 434.6 41.72 438.38 28.01 438.38 L 24.41 438.38 C 10.69 438.39 3.84 434.61 3.84 427.07 Z "/><path d=" M 2.82 41.16 L 2.82 12.35 C 2.82 4.12 11.05 0 27.52 0 C 42.61 0 50.16 4.11 50.16 12.35 L 50.16 41.16 C 50.16 49.39 41.93 53.51 25.46 53.51 C 10.36 53.51 2.82 49.39 2.82 41.16 Z "/><path d=" M 234.82 503.16 L 234.82 474.35 C 234.82 466.12 243.05 462 259.52 462 C 274.61 462 282.16 466.11 282.16 474.35 L 282.16 503.16 C 282.16 511.39 273.93 515.51 257.46 515.51 C 242.36 515.51 234.82 511.39 234.82 503.16 Z "/></svg>